<svg width="200" height="44" viewBox="0 0 200 44" fill="none" xmlns="http://www.w3.org/2000/svg">
<g clip-path="url(#clip0_23_520)">
<path d="M159.131 10.0024H154.783V14.3509H159.131V10.0024Z" fill="white"/>
<path d="M177.394 16.0884H172.177L168.26 21.5638L164.348 16.0884H159.131L165.654 25.2173L159.131 34.3462H164.348L168.26 28.8707L172.177 34.3462H177.394L170.871 25.2173L177.394 16.0884Z" fill="white"/>
<path d="M154.783 34.3462H156.957L159.131 31.3032V16.0884H154.783V34.3462Z" fill="white"/>
<path d="M200.005 9.12891H195.656V34.3461H200.005V9.12891Z" fill="white"/>
<path d="M184.785 15.6421C183.211 15.6407 181.662 16.0277 180.273 16.7687C178.885 17.5097 177.7 18.5819 176.826 19.8901C175.951 21.1983 175.412 22.7022 175.258 24.2684C175.103 25.8346 175.337 27.4148 175.94 28.8687C176.542 30.3227 177.494 31.6056 178.711 32.6037C179.927 33.6018 181.372 34.2842 182.915 34.5905C184.459 34.8967 186.055 34.8174 187.56 34.3594C189.066 33.9015 190.436 33.0791 191.547 31.9652L188.476 28.9081C187.854 29.5325 187.083 29.9887 186.236 30.2342C185.389 30.4796 184.494 30.5062 183.634 30.3116C182.774 30.1169 181.978 29.7072 181.319 29.1209C180.66 28.5347 180.161 27.7909 179.869 26.9593H194.196C194.451 25.5804 194.4 24.1621 194.047 22.8051C193.693 21.4481 193.045 20.1855 192.149 19.1069C191.252 18.0282 190.13 17.16 188.861 16.5636C187.591 15.9673 186.206 15.6575 184.804 15.6562L184.785 15.6421ZM179.883 23.4796C180.237 22.4541 180.903 21.5647 181.786 20.9352C182.67 20.3057 183.728 19.9674 184.813 19.9674C185.898 19.9674 186.956 20.3057 187.84 20.9352C188.724 21.5647 189.389 22.4541 189.744 23.4796H179.883Z" fill="white"/>
<path d="M91.3031 17.7083C89.7152 16.375 87.7085 15.6435 85.6351 15.6421C80.5916 15.6421 76.5015 19.9248 76.5015 25.2077C76.5015 30.4906 80.5916 34.7733 85.6351 34.7733C87.6959 34.7665 89.6895 34.0388 91.2702 32.7165V34.3366H95.6186V16.1117H91.2702L91.3031 17.7083ZM86.1047 30.439C85.0728 30.439 84.0641 30.133 83.2061 29.5597C82.3482 28.9865 81.6795 28.1717 81.2846 27.2183C80.8897 26.265 80.7864 25.216 80.9877 24.204C81.189 23.1919 81.6859 22.2623 82.4156 21.5327C83.1452 20.8031 84.0748 20.3062 85.0868 20.1049C86.0989 19.9036 87.1479 20.0069 88.1012 20.4018C89.0545 20.7966 89.8693 21.4653 90.4426 22.3233C91.0159 23.1813 91.3218 24.1899 91.3218 25.2218C91.3206 26.6051 90.7705 27.9314 89.7924 28.9095C88.8143 29.8877 87.488 30.4377 86.1047 30.439Z" fill="white"/>
<path d="M105.062 23.2026C102.963 22.639 101.737 22.1741 101.737 21.3242C101.737 20.4742 102.611 20.0187 103.48 20.0187C104.348 20.0187 105.386 19.8215 106.926 21.357L110.002 18.2812C107.847 16.1117 106.086 15.6421 103.48 15.6421C100.873 15.6421 96.957 16.9429 96.957 21.2772C96.957 23.8882 98.7414 25.7665 101.681 26.5555C103.78 27.119 106.086 27.7999 106.086 29.1053C106.086 30.4108 104.348 30.4108 103.48 30.4108C102.611 30.4108 101.352 29.9412 99.8168 28.4197L96.741 31.4909C98.8964 33.6463 100.869 34.7546 103.48 34.7546C109.584 34.7546 110.871 30.8428 110.871 29.1194C110.871 25.2077 108.002 23.9539 105.062 23.1885" fill="white"/>
<path d="M126.523 17.7083C124.935 16.3754 122.928 15.6439 120.855 15.6421C115.811 15.6421 111.726 19.9248 111.726 25.2077C111.726 30.4906 115.811 34.7733 120.855 34.7733C122.915 34.7665 124.909 34.0388 126.49 32.7165V34.3366H130.838V16.1117H126.49L126.523 17.7083ZM121.324 30.439C120.292 30.439 119.284 30.133 118.426 29.5597C117.568 28.9865 116.899 28.1717 116.504 27.2183C116.109 26.265 116.006 25.216 116.207 24.204C116.409 23.1919 116.905 22.2623 117.635 21.5327C118.365 20.8031 119.294 20.3062 120.306 20.1049C121.318 19.9036 122.367 20.0069 123.321 20.4018C124.274 20.7966 125.089 21.4653 125.662 22.3233C126.235 23.1813 126.541 24.1899 126.541 25.2218C126.541 26.6055 125.992 27.9325 125.013 28.9109C124.035 29.8893 122.708 30.439 121.324 30.439Z" fill="white"/>
<path d="M73.2238 26.7057C72.1816 28.2046 70.6941 29.3374 68.9722 29.9438C67.2503 30.5502 65.3812 30.5994 63.6298 30.0843C61.8784 29.5693 60.3335 28.5161 59.2139 27.0742C58.0944 25.6322 57.457 23.8744 57.3921 22.05C57.3271 20.2256 57.838 18.427 58.8522 16.9091C59.8664 15.3912 61.3326 14.2309 63.0429 13.5927C64.7533 12.9544 66.6211 12.8706 68.3818 13.3531C70.1425 13.8355 71.7067 14.8598 72.8528 16.2807L75.938 13.1955C74.1784 11.167 71.8357 9.73093 69.2297 9.08331C66.6236 8.43569 63.8812 8.60808 61.3768 9.57695C58.8723 10.5458 56.7279 12.264 55.2362 14.4968C53.7445 16.7297 52.9782 19.3685 53.0419 22.0531C53.1056 24.7377 53.9962 27.3372 55.5922 29.4968C57.1882 31.6564 59.4117 33.2708 61.9593 34.1198C64.5069 34.9687 67.2544 35.0108 69.8268 34.2403C72.3992 33.4698 74.6711 31.9241 76.3325 29.8144L73.2238 26.7057Z" fill="white"/>
<path d="M144.334 9.13372H135.219V34.3509H139.568V27.3821H144.334C146.72 27.328 148.99 26.3422 150.658 24.6357C152.327 22.9291 153.261 20.6374 153.261 18.2509C153.261 15.8644 152.327 13.5726 150.658 11.8661C148.99 10.1595 146.72 9.17374 144.334 9.11963V9.13372ZM144.334 23.0337H139.568V13.4822H144.334C145.577 13.5211 146.755 14.0421 147.621 14.9348C148.486 15.8275 148.97 17.0218 148.97 18.265C148.97 19.5081 148.486 20.7025 147.621 21.5952C146.755 22.4879 145.577 23.0088 144.334 23.0478" fill="white"/>
<path d="M24.3484 36.5249H19.1312C18.9008 36.5249 18.6798 36.6164 18.5169 36.7794C18.354 36.9423 18.2625 37.1632 18.2625 37.3937V42.6108C18.2625 42.8412 18.354 43.0622 18.5169 43.2251C18.6798 43.3881 18.9008 43.4796 19.1312 43.4796H24.3484C24.5788 43.4796 24.7998 43.3881 24.9627 43.2251C25.1256 43.0622 25.2171 42.8412 25.2171 42.6108V37.3937C25.2171 37.1632 25.1256 36.9423 24.9627 36.7794C24.7998 36.6164 24.5788 36.5249 24.3484 36.5249Z" fill="#0087FF"/>
<path d="M24.3484 0H19.1312C19.0167 -1.67241e-06 18.9034 0.022622 18.7977 0.066574C18.692 0.110526 18.596 0.174938 18.5152 0.256107C18.4345 0.337276 18.3706 0.433599 18.3272 0.539543C18.2839 0.645487 18.2618 0.758965 18.2625 0.873445V32.6133C18.2625 32.8437 18.354 33.0647 18.5169 33.2276C18.6798 33.3905 18.9008 33.482 19.1312 33.482H24.3484C24.5788 33.482 24.7998 33.3905 24.9627 33.2276C25.1256 33.0647 25.2171 32.8437 25.2171 32.6133V0.873445C25.2178 0.758965 25.1958 0.645487 25.1524 0.539543C25.109 0.433599 25.0451 0.337276 24.9644 0.256107C24.8836 0.174938 24.7877 0.110526 24.6819 0.066574C24.5762 0.022622 24.4629 -1.67241e-06 24.3484 0Z" fill="#0087FF"/>
<path d="M42.1085 12.5992L30.8383 1.32899C30.6281 1.11935 30.3606 0.976642 30.0694 0.918872C29.7783 0.861102 29.4765 0.890853 29.2023 1.00438C28.928 1.1179 28.6935 1.31011 28.5284 1.55675C28.3632 1.8034 28.2748 2.09343 28.2743 2.39026V7.16134C28.2747 8.08414 28.6412 8.96908 29.2933 9.62201L35.5859 15.9146L29.2839 22.2165C28.6318 22.8694 28.2653 23.7544 28.2649 24.6772V29.4483C28.2654 29.7451 28.3538 30.0351 28.519 30.2818C28.6841 30.5284 28.9186 30.7206 29.1929 30.8341C29.4671 30.9477 29.7689 30.9774 30.06 30.9197C30.3512 30.8619 30.6187 30.7192 30.8289 30.5095L42.0991 19.2393C42.5333 18.8061 42.8778 18.2916 43.1128 17.7251C43.3479 17.1586 43.4689 16.5514 43.4689 15.938C43.4689 15.3247 43.3479 14.7175 43.1128 14.151C42.8778 13.5845 42.5333 13.07 42.0991 12.6368" fill="#0087FF"/>
<path d="M12.6509 12.9984L1.38065 24.2687C0.51173 25.1477 0.0244141 26.3339 0.0244141 27.5699C0.0244141 28.8059 0.51173 29.9921 1.38065 30.8712L12.6509 42.1414C12.8613 42.3513 13.1293 42.4941 13.4209 42.5518C13.7125 42.6094 14.0146 42.5792 14.2891 42.4651C14.5635 42.351 14.798 42.1581 14.9628 41.9107C15.1276 41.6633 15.2153 41.3727 15.2149 41.0754V36.3372C15.2152 35.8802 15.1253 35.4276 14.9505 35.0054C14.7756 34.5832 14.5192 34.1996 14.1959 33.8766L7.90331 27.584L14.1959 21.2774C14.519 20.9552 14.7754 20.5724 14.9503 20.151C15.1252 19.7295 15.2151 19.2777 15.2149 18.8214V14.0597C15.2144 13.7629 15.126 13.4728 14.9608 13.2262C14.7957 12.9795 14.5612 12.7873 14.2869 12.6738C14.0126 12.5603 13.7109 12.5305 13.4197 12.5883C13.1286 12.6461 12.861 12.7888 12.6509 12.9984Z" fill="#0087FF"/>
</g>
<defs>
<clipPath id="clip0_23_520">
<rect width="200" height="43.4797" fill="white"/>
</clipPath>
</defs>
</svg>
